# xmcd
#
# Track frame offsets:
#	150
#	13920
#	32261
#	49216
#	64347
#	78875
#	92670
#	109306
#	123578
#	138345
#	153692
#	170215
#	184716
#	202261
#	222303
#	234630
#	249755
#	265737
#	280121
#	296943
#
# Disc length: 4165 seconds
# Revision: 0
# Processed by: cddbd v1.5.2PL0 Copyright (c) Steve Scherf et al.
# Submitted via: dBpowerAMP V12.0
#
DISCID=30104314
DTITLE=Various Artist - Country Radio October 2011
DYEAR=2011
DGENRE=Country
TTITLE0=Lady Antebellum - We Owned The Night
TTITLE1=Carolyn Dawn Johnson - I'd Still Have You
TTITLE2=Jimmy Rankin - I'm Just Saying
TTITLE3=Jason Aldean - Tattoos On This Town
TTITLE4=Marlee Scott - Beautiful Maybe
TTITLE5=Stellas - Perfect
TTITLE6=Jason Blaine - They Don't Make Em Like That Anymore
TTITLE7=Eric Church - Drink In My Hand
TTITLE8=Ryan Laird - She Was The One
TTITLE9=Tara Oram - Kiss Me When I Fall
TTITLE10=Aaron Pritchett - Coming Clean
TTITLE11=Codie Prevost - Honky Tonk Groupie
TTITLE12=Reba - Somebody's Chelsea
TTITLE13=Jim Cuddy - Everybody Watched The Wedding
TTITLE14=Chris Young - You
TTITLE15=Sunny Sweeney - Staying's Worse Than Leaving
TTITLE16=Zac Brown Band - Keep Me In Mind
TTITLE17=Pistol Annies - Hell On Heels
TTITLE18=Charlie Major - Keep On Livin
TTITLE19=Melissa Rae Barrie - Miss Me For A Minute
EXTD=
EXTT0=
EXTT1=
EXTT2=
EXTT3=
EXTT4=
EXTT5=
EXTT6=
EXTT7=
EXTT8=
EXTT9=
EXTT10=
EXTT11=
EXTT12=
EXTT13=
EXTT14=
EXTT15=
EXTT16=
EXTT17=
EXTT18=
EXTT19=
PLAYORDER=
